<?xml version="1.0" encoding="iso-8859-1"?>
<!-- Generator: Adobe Illustrator 19.0.0, SVG Export Plug-In . SVG Version: 6.00 Build 0)  -->
<svg version="1.1" id="Layer_1" xmlns="http://www.w3.org/2000/svg" xmlns:xlink="http://www.w3.org/1999/xlink" x="0px" y="0px"
	 viewBox="0 0 512 512" style="enable-background:new 0 0 512 512;" xml:space="preserve">
<circle style="fill:#008CC3;" cx="256" cy="256" r="256"/>
<path style="fill:#0074A3;" d="M511.919,262.394L364.873,115.347l-20.077,18.765l-48.778-48.778L85.333,401.36L186.39,502.417
	C208.524,508.657,231.87,512,256,512C395.248,512,508.526,400.824,511.919,262.394z"/>
<path style="fill:#E0E0E0;" d="M366.247,401.36c-69.518-93.993-70.228-316.026-70.228-316.026H155.562
	c0,0-0.71,222.034-70.228,316.026H366.247z"/>
<path style="fill:#C0C0C0;" d="M296.019,85.333h-75.645V401.36h145.873C296.729,307.367,296.019,85.333,296.019,85.333z"/>
<path style="fill:#FF6838;" d="M143.5,229.123h164.581c-4.853-31.277-7.758-61.062-9.49-85.333H152.99
	C151.255,168.062,148.352,197.847,143.5,229.123z"/>
<path style="fill:#AE4E32;" d="M298.591,143.789h-78.217v85.333h87.707C303.228,197.847,300.323,168.062,298.591,143.789z"/>
<path style="fill:#FFFFFF;" d="M428.432,401.36c-62.916-85.066-63.559-286.013-63.559-286.013H237.756
	c0,0-0.643,200.947-63.559,286.011L428.432,401.36z"/>
<path style="fill:#E0E0E0;" d="M364.873,115.347H296.8V401.36h131.632C365.516,316.294,364.873,115.347,364.873,115.347z"/>
<path style="fill:#FF9451;" d="M226.84,245.481h148.951c-4.393-28.307-7.02-55.263-8.589-77.229H235.429
	C233.86,190.219,231.233,217.176,226.84,245.481z"/>
<path style="fill:#F7674F;" d="M367.202,168.251H296.8v77.229h78.991C371.398,217.176,368.769,190.217,367.202,168.251z"/>
<g>
</g>
<g>
</g>
<g>
</g>
<g>
</g>
<g>
</g>
<g>
</g>
<g>
</g>
<g>
</g>
<g>
</g>
<g>
</g>
<g>
</g>
<g>
</g>
<g>
</g>
<g>
</g>
<g>
</g>
</svg>
