<svg width="24" height="24" viewBox="0 0 24 24" fill="none" xmlns="http://www.w3.org/2000/svg">
<path fill-rule="evenodd" clip-rule="evenodd" d="M6 2C5.20435 2 4.44129 2.31607 3.87868 2.87868C3.31607 3.44129 3 4.20435 3 5V19C3 19.7956 3.31607 20.5587 3.87868 21.1213C4.44129 21.6839 5.20435 22 6 22H18C18.7956 22 19.5587 21.6839 20.1213 21.1213C20.6839 20.5587 21 19.7956 21 19V9C21 7.14348 20.2625 5.36301 18.9497 4.05025C17.637 2.7375 15.8565 2 14 2H6ZM6 4H13V9H19V19C19 19.2652 18.8946 19.5196 18.7071 19.7071C18.5196 19.8946 18.2652 20 18 20H6C5.73478 20 5.48043 19.8946 5.29289 19.7071C5.10536 19.5196 5 19.2652 5 19V5C5 4.73478 5.10536 4.48043 5.29289 4.29289C5.48043 4.10536 5.73478 4 6 4V4ZM15 4.1C15.786 4.26102 16.5218 4.60849 17.1455 5.11315C17.7692 5.61782 18.2625 6.26492 18.584 7H15V4.1Z" fill="black"/>
<path d="M5.6969 14.832C5.6969 14.208 5.8319 13.653 6.1019 13.167C6.3719 12.675 6.7469 12.294 7.2269 12.024C7.7129 11.748 8.2619 11.61 8.8739 11.61C9.6239 11.61 10.2659 11.808 10.7999 12.204C11.3339 12.6 11.6909 13.14 11.8709 13.824H10.1789C10.0529 13.56 9.8729 13.359 9.6389 13.221C9.4109 13.083 9.1499 13.014 8.8559 13.014C8.3819 13.014 7.9979 13.179 7.7039 13.509C7.4099 13.839 7.2629 14.28 7.2629 14.832C7.2629 15.384 7.4099 15.825 7.7039 16.155C7.9979 16.485 8.3819 16.65 8.8559 16.65C9.1499 16.65 9.4109 16.581 9.6389 16.443C9.8729 16.305 10.0529 16.104 10.1789 15.84H11.8709C11.6909 16.524 11.3339 17.064 10.7999 17.46C10.2659 17.85 9.6239 18.045 8.8739 18.045C8.2619 18.045 7.7129 17.91 7.2269 17.64C6.7469 17.364 6.3719 16.983 6.1019 16.497C5.8319 16.011 5.6969 15.456 5.6969 14.832ZM18.7444 11.682L16.5034 18H14.5774L12.3364 11.682H13.9744L15.5404 16.452L17.1154 11.682H18.7444Z" fill="black"/>
</svg>
