<svg width="24" height="24" viewBox="0 0 24 24" fill="none" xmlns="http://www.w3.org/2000/svg">
<path d="M22.392 5.976C21.3449 4.16127 19.8378 2.65465 18.0228 1.608C16.1832 0.5364 14.1756 0 12 0C9.8244 0 7.8168 0.5364 5.976 1.608C4.1364 2.6796 2.6796 4.1364 1.608 5.976C0.5364 7.8156 0 9.8244 0 12C0 14.1756 0.5352 16.1844 1.608 18.024C2.65479 19.839 4.16191 21.3457 5.9772 22.392C7.8168 23.4636 9.8244 24 12 24C14.1756 24 16.1832 23.4636 18.024 22.392C19.839 21.3453 21.346 19.8387 22.3932 18.024C23.4648 16.1844 24 14.1756 24 12C24 9.8244 23.4648 7.8156 22.392 5.976ZM12 1.992C14.4 1.992 16.5264 2.76 18.384 4.2948C17.28 5.7036 15.6408 6.8628 13.464 7.7748C12.2616 5.5992 10.9584 3.7824 9.5508 2.3268C10.3486 2.10622 11.1723 1.99361 12 1.992V1.992ZM4.212 5.76C5.08949 4.64571 6.19976 3.73653 7.4652 3.096C8.9196 4.5372 10.2552 6.336 11.4732 8.496C9.0732 9.216 6.5364 9.576 3.864 9.576C3.1764 9.576 2.6568 9.5604 2.304 9.528C2.67177 8.15326 3.32154 6.87007 4.212 5.76V5.76ZM1.992 12C1.992 11.9352 1.9956 11.856 2.004 11.76C2.0124 11.664 2.016 11.5848 2.016 11.52C2.3208 11.5368 2.7852 11.544 3.4092 11.544C6.6084 11.544 9.5844 11.1036 12.336 10.224C12.5604 10.6716 12.7932 11.1756 13.032 11.736C11.448 12.0876 9.8232 12.9432 8.1588 14.304C6.4944 15.6648 5.28 17.0964 4.512 18.6C2.832 16.6956 1.992 14.496 1.992 12V12ZM12 22.008C9.7272 22.008 7.6872 21.3036 5.8788 19.8972C6.6 18.4728 7.7076 17.1108 9.204 15.816C10.6992 14.52 12.1836 13.7124 13.656 13.392C14.5848 15.9588 15.213 18.6246 15.528 21.336C14.4034 21.7754 13.2074 22.0033 12 22.008V22.008ZM20.496 17.256C19.7105 18.5214 18.6529 19.5959 17.4 20.4012C17.112 17.9052 16.56 15.4728 15.7452 13.104C16.8636 13.0248 17.8632 12.984 18.7452 12.984C19.704 12.984 20.7684 13.0248 21.936 13.104C21.7794 14.5798 21.2868 16.0001 20.496 17.256ZM19.008 11.256C17.616 11.256 16.3284 11.3124 15.144 11.424C14.8931 10.7673 14.621 10.119 14.328 9.48C16.8072 8.3928 18.5664 7.0728 19.6068 5.52C21.0468 7.2168 21.8316 9.1524 21.9588 11.328C20.9844 11.28 20.0004 11.256 19.008 11.256V11.256Z" fill="white"/>
</svg>
