<svg width="18" height="18" viewBox="0 0 18 18" fill="none" xmlns="http://www.w3.org/2000/svg">
<path d="M9 0C4.0293 0 0 4.0293 0 9C0 13.9707 4.0293 18 9 18C13.9707 18 18 13.9707 18 9C18 4.0293 13.9707 0 9 0ZM9 1.3041C10.9606 1.3041 12.7503 2.0376 14.1093 3.2445C13.1107 4.56165 11.5938 5.4387 10.0737 6.03225C9.21318 4.46505 8.24878 2.95719 7.18695 1.51875C7.78081 1.3756 8.38958 1.30355 9.00045 1.3041H9ZM5.7258 2.0331C6.7293 3.5343 7.7013 4.92615 8.58915 6.5016C6.34365 7.08345 3.8061 7.43265 1.46205 7.4385C1.95615 5.0409 3.5667 3.0501 5.7258 2.03355V2.0331ZM14.9629 4.1346C16.075 5.49358 16.6868 7.19318 16.6959 8.94915C14.9157 8.59815 13.1454 8.50635 11.3427 8.68815C11.1402 8.1828 10.8945 7.70265 10.6591 7.18515C12.213 6.5583 13.8744 5.4855 14.9629 4.13415V4.1346ZM9.2142 7.6923C9.4068 8.1018 9.63 8.5365 9.8397 8.98065C7.3332 10.0859 4.66695 11.5628 3.2832 14.1521C1.9548 12.682 1.24686 10.7549 1.3077 8.77455C3.99195 8.76195 6.6267 8.42625 9.2142 7.6923V7.6923ZM13.2813 9.79065C14.4013 9.79089 15.5166 9.93456 16.6 10.2182C16.433 11.2605 16.0533 12.2572 15.4845 13.1465C14.9157 14.0358 14.1701 14.7985 13.2939 15.3873C12.8808 13.5085 12.487 11.7108 11.7909 9.8982C12.2843 9.82631 12.7822 9.79021 13.2808 9.7902L13.2813 9.79065ZM16.6401 9.93015C16.6347 9.97425 16.6298 10.0174 16.6235 10.0606C16.6298 10.017 16.6351 9.9738 16.6401 9.93015ZM10.3671 10.2496C11.0763 12.0825 11.6329 14.112 12.0064 16.087C11.0557 16.4905 10.0333 16.6977 9.00045 16.6963C7.28948 16.6988 5.62692 16.1285 4.2777 15.0763C5.67135 12.8155 7.83 11.1046 10.3667 10.2501L10.3671 10.2496Z" fill="#1A1A1A"/>
</svg>
