<svg width="12" height="12" viewBox="0 0 12 12" fill="none" xmlns="http://www.w3.org/2000/svg">
<path d="M6 0C2.6862 0 0 2.6862 0 6C0 9.3138 2.6862 12 6 12C9.3138 12 12 9.3138 12 6C12 2.6862 9.3138 0 6 0ZM6 0.8694C7.3071 0.8694 8.5002 1.3584 9.4062 2.163C8.7405 3.0411 7.7292 3.6258 6.7158 4.0215C6.14212 2.9767 5.49919 1.97146 4.7913 1.0125C5.18721 0.91707 5.59305 0.869033 6.0003 0.8694H6ZM3.8172 1.3554C4.4862 2.3562 5.1342 3.2841 5.7261 4.3344C4.2291 4.7223 2.5374 4.9551 0.9747 4.959C1.3041 3.3606 2.3778 2.0334 3.8172 1.3557V1.3554ZM9.9753 2.7564C10.7167 3.66239 11.1245 4.79545 11.1306 5.9661C9.9438 5.7321 8.7636 5.6709 7.5618 5.7921C7.4268 5.4552 7.263 5.1351 7.1061 4.7901C8.142 4.3722 9.2496 3.657 9.9753 2.7561V2.7564ZM6.1428 5.1282C6.2712 5.4012 6.42 5.691 6.5598 5.9871C4.8888 6.7239 3.1113 7.7085 2.1888 9.4347C1.3032 8.45468 0.83124 7.16996 0.8718 5.8497C2.6613 5.8413 4.4178 5.6175 6.1428 5.1282V5.1282ZM8.8542 6.5271C9.60084 6.52726 10.3444 6.62304 11.0667 6.8121C10.9553 7.50697 10.7022 8.1715 10.323 8.76435C9.94382 9.3572 9.44671 9.86569 8.8626 10.2582C8.5872 9.0057 8.3247 7.8072 7.8606 6.5988C8.18953 6.55087 8.5215 6.52681 8.8539 6.5268L8.8542 6.5271ZM11.0934 6.6201C11.0898 6.6495 11.0865 6.6783 11.0823 6.7071C11.0865 6.678 11.0901 6.6492 11.0934 6.6201ZM6.9114 6.8331C7.3842 8.055 7.7553 9.408 8.0043 10.7247C7.37046 10.9936 6.68883 11.1318 6.0003 11.1309C4.85965 11.1325 3.75128 10.7523 2.8518 10.0509C3.7809 8.5437 5.22 7.4031 6.9111 6.8334L6.9114 6.8331Z" fill="#1A1A1A"/>
</svg>
