<svg width="25" height="24" viewBox="0 0 25 24" fill="none" xmlns="http://www.w3.org/2000/svg">
<path d="M12.1667 0C5.59166 0 0.261902 5.32976 0.261902 11.9048C0.261902 18.4798 5.59166 23.8095 12.1667 23.8095C18.7417 23.8095 24.0714 18.4798 24.0714 11.9048C24.0714 5.32976 18.7417 0 12.1667 0ZM12.1667 1.725C14.7601 1.725 17.1274 2.69524 18.925 4.29167C17.6042 6.03393 15.5976 7.19405 13.5869 7.97917C12.4487 5.90616 11.173 3.91162 9.76845 2.00893C10.554 1.81958 11.3592 1.72427 12.1673 1.725H12.1667ZM7.83571 2.68929C9.16309 4.675 10.4488 6.51607 11.6232 8.6C8.65297 9.36964 5.29643 9.83155 2.19583 9.83929C2.8494 6.66786 4.97976 4.03452 7.83571 2.68988V2.68929ZM20.0542 5.46905C21.5251 7.26664 22.3343 9.51479 22.3464 11.8375C19.9917 11.3732 17.65 11.2518 15.2655 11.4923C14.9976 10.8238 14.6726 10.1887 14.3613 9.50417C16.4167 8.675 18.6143 7.25595 20.0542 5.46845V5.46905ZM12.45 10.175C12.7048 10.7167 13 11.2917 13.2774 11.8792C9.9619 13.3411 6.43512 15.2946 4.60476 18.7196C2.84762 16.7752 1.91119 14.2261 1.99166 11.6065C5.54226 11.5899 9.02738 11.1458 12.45 10.175ZM17.8298 12.9506C19.3112 12.9509 20.7865 13.141 22.2196 13.5161C21.9987 14.8948 21.4964 16.2133 20.744 17.3896C19.9917 18.5659 19.0054 19.5748 17.8464 20.3536C17.3 17.8685 16.7792 15.4905 15.8583 13.0929C16.511 12.9978 17.1696 12.95 17.8292 12.95L17.8298 12.9506ZM22.2726 13.1351C22.2655 13.1935 22.2589 13.2506 22.2506 13.3077C22.2589 13.25 22.2661 13.1929 22.2726 13.1351ZM13.975 13.5577C14.9131 15.9821 15.6494 18.6667 16.1434 21.2792C14.8858 21.8128 13.5334 22.0869 12.1673 22.0851C9.90407 22.0884 7.70492 21.334 5.92023 19.9423C7.76369 16.9518 10.619 14.6887 13.9744 13.5583L13.975 13.5577Z" fill="#A9A9A9"/>
</svg>
