<svg width="22" height="22" viewBox="0 0 22 22" fill="none" xmlns="http://www.w3.org/2000/svg">
<path d="M18.8334 0.904785C19.4522 0.904785 20.0457 1.15062 20.4833 1.5882C20.9209 2.02579 21.1667 2.61928 21.1667 3.23812V19.5715C21.1667 20.1903 20.9209 20.7838 20.4833 21.2214C20.0457 21.659 19.4522 21.9048 18.8334 21.9048H2.50002C1.88118 21.9048 1.28769 21.659 0.850104 21.2214C0.41252 20.7838 0.166687 20.1903 0.166687 19.5715V3.23812C0.166687 2.61928 0.41252 2.02579 0.850104 1.5882C1.28769 1.15062 1.88118 0.904785 2.50002 0.904785H18.8334ZM18.25 18.9881V12.8048C18.25 11.7961 17.8493 10.8287 17.136 10.1154C16.4228 9.40216 15.4554 9.00145 14.4467 9.00145C13.455 9.00145 12.3 9.60812 11.74 10.5181V9.22312H8.48502V18.9881H11.74V13.2365C11.74 12.3381 12.4634 11.6031 13.3617 11.6031C13.7949 11.6031 14.2103 11.7752 14.5166 12.0815C14.8229 12.3878 14.995 12.8033 14.995 13.2365V18.9881H18.25ZM4.69335 7.39145C5.21318 7.39145 5.71171 7.18495 6.07928 6.81738C6.44685 6.44981 6.65335 5.95128 6.65335 5.43145C6.65335 4.34645 5.77835 3.45979 4.69335 3.45979C4.17043 3.45979 3.66893 3.66751 3.29917 4.03727C2.92942 4.40703 2.72169 4.90853 2.72169 5.43145C2.72169 6.51645 3.60835 7.39145 4.69335 7.39145ZM6.31502 18.9881V9.22312H3.08335V18.9881H6.31502Z" fill="#A9A9A9"/>
</svg>
