<svg width="24" height="19" viewBox="0 0 24 19" fill="none" xmlns="http://www.w3.org/2000/svg">
<path d="M21 4.7382L11.6667 10.5715L2.33333 4.7382V2.40487L11.6667 8.2382L21 2.40487V4.7382ZM21 0.0715332H2.33333C1.03833 0.0715332 0 1.10987 0 2.40487V16.4049C0 17.0237 0.245833 17.6172 0.683417 18.0548C1.121 18.4924 1.71449 18.7382 2.33333 18.7382H21C21.6188 18.7382 22.2123 18.4924 22.6499 18.0548C23.0875 17.6172 23.3333 17.0237 23.3333 16.4049V2.40487C23.3333 1.78603 23.0875 1.19254 22.6499 0.754951C22.2123 0.317366 21.6188 0.0715332 21 0.0715332Z" fill="#A9A9A9"/>
</svg>
