<svg width="25" height="20" viewBox="0 0 25 20" fill="none" xmlns="http://www.w3.org/2000/svg">
<path d="M24.87 2.40487C23.9716 2.8132 23.0033 3.08153 22 3.20987C23.0266 2.59153 23.82 1.61153 24.1933 0.4332C23.225 1.01653 22.1516 1.42487 21.02 1.6582C20.0983 0.654867 18.8033 0.0715332 17.3333 0.0715332C14.5917 0.0715332 12.3517 2.31153 12.3517 5.07653C12.3517 5.4732 12.3983 5.8582 12.48 6.21987C8.32665 6.00987 4.62832 4.01487 2.16665 0.9932C1.73498 1.7282 1.48998 2.59153 1.48998 3.50153C1.48998 5.23987 2.36498 6.77987 3.71832 7.65487C2.88998 7.65487 2.11998 7.42153 1.44332 7.07153V7.10653C1.44332 9.5332 3.16998 11.5632 5.45665 12.0182C4.7225 12.2191 3.95176 12.2471 3.20498 12.0999C3.52186 13.0944 4.14244 13.9647 4.9795 14.5883C5.81656 15.2119 6.82801 15.5575 7.87165 15.5765C6.10255 16.977 3.90965 17.7341 1.65332 17.7232C1.25665 17.7232 0.859985 17.6999 0.463318 17.6532C2.67998 19.0765 5.31665 19.9049 8.13998 19.9049C17.3333 19.9049 22.385 12.2749 22.385 5.65987C22.385 5.4382 22.385 5.2282 22.3733 5.00653C23.3533 4.30653 24.1933 3.41987 24.87 2.40487Z" fill="#A9A9A9"/>
</svg>
