<svg width="1440" height="416" viewBox="0 0 1440 416" fill="none" xmlns="http://www.w3.org/2000/svg">
<rect width="1440" height="416" fill="white"/>
<circle cx="720" cy="192" r="154" fill="#37A29E"/>
<g filter="url(#filter0_d)">
<rect x="626" y="109.115" width="188" height="171.886" rx="8" fill="#F2F2F2"/>
</g>
<path d="M626 117C626 112.582 629.582 109 634 109H806C810.418 109 814 112.582 814 117V145H626V117Z" fill="#E75454"/>
<rect x="647" y="164" width="25" height="25" rx="4" fill="#AEC8D9"/>
<rect x="647" y="200" width="25" height="25" rx="4" fill="#AEC8D9"/>
<circle cx="659" cy="127" r="9" fill="#F2F2F2"/>
<circle cx="779" cy="127" r="9" fill="#F2F2F2"/>
<rect x="655" y="128" width="38" height="8" rx="4" transform="rotate(-90 655 128)" fill="#333333"/>
<rect x="775" y="128" width="38" height="8" rx="4" transform="rotate(-90 775 128)" fill="#333333"/>
<rect x="647" y="236" width="25" height="25" rx="4" fill="#E0E0E0"/>
<rect x="687" y="164" width="25" height="25" rx="4" fill="#AEC8D9"/>
<rect x="687" y="200" width="25" height="25" rx="4" fill="#E0E0E0"/>
<rect x="687" y="236" width="25" height="25" rx="4" fill="#AEC8D9"/>
<rect x="727" y="164" width="25" height="25" rx="4" fill="#E0E0E0"/>
<rect x="727" y="200" width="25" height="25" rx="4" fill="#E0E0E0"/>
<rect x="727" y="236" width="25" height="25" rx="4" fill="#E0E0E0"/>
<rect x="767" y="164" width="25" height="25" rx="4" fill="#AEC8D9"/>
<rect x="767" y="200" width="25" height="25" rx="4" fill="#E0E0E0"/>
<rect x="767" y="236" width="25" height="25" rx="4" fill="#AEC8D9"/>
<defs>
<filter id="filter0_d" x="624" y="109.115" width="200" height="185.886" filterUnits="userSpaceOnUse" color-interpolation-filters="sRGB">
<feFlood flood-opacity="0" result="BackgroundImageFix"/>
<feColorMatrix in="SourceAlpha" type="matrix" values="0 0 0 0 0 0 0 0 0 0 0 0 0 0 0 0 0 0 127 0"/>
<feMorphology radius="1" operator="dilate" in="SourceAlpha" result="effect1_dropShadow"/>
<feOffset dx="4" dy="8"/>
<feGaussianBlur stdDeviation="2.5"/>
<feColorMatrix type="matrix" values="0 0 0 0 0 0 0 0 0 0 0 0 0 0 0 0 0 0 0.15 0"/>
<feBlend mode="normal" in2="BackgroundImageFix" result="effect1_dropShadow"/>
<feBlend mode="normal" in="SourceGraphic" in2="effect1_dropShadow" result="shape"/>
</filter>
</defs>
</svg>
