<svg width="26" height="26" viewBox="0 0 26 26" fill="none" xmlns="http://www.w3.org/2000/svg">
<path d="M13 0C5.8201 0 0 5.8201 0 13C0 20.1799 5.8201 26 13 26C20.1799 26 26 20.1799 26 13C26 5.8201 20.1799 0 13 0ZM13 1.8837C15.832 1.8837 18.4171 2.9432 20.3801 4.6865C18.9377 6.58905 16.7466 7.8559 14.5509 8.71325C13.3079 6.44952 11.9149 4.27149 10.3812 2.19375C11.2389 1.98698 12.1183 1.8829 13.0006 1.8837H13ZM8.2706 2.9367C9.7201 5.1051 11.1241 7.11555 12.4065 9.3912C9.16305 10.2316 5.4977 10.7361 2.11185 10.7445C2.82555 7.2813 5.1519 4.4057 8.2706 2.93735V2.9367ZM21.6131 5.9722C23.2195 7.93517 24.1031 10.3901 24.1163 12.9265C21.5449 12.4195 18.9878 12.2869 16.3839 12.5495C16.0914 11.8196 15.7365 11.126 15.3965 10.3785C17.641 9.4731 20.0408 7.9235 21.6131 5.97155V5.9722ZM13.3094 11.1111C13.5876 11.7026 13.91 12.3305 14.2129 12.9721C10.5924 14.5684 6.74115 16.7018 4.7424 20.4419C2.8236 18.3185 1.80102 15.5349 1.8889 12.6743C5.76615 12.6561 9.5719 12.1712 13.3094 11.1111V11.1111ZM19.1841 14.142C20.8018 14.1424 22.4128 14.3499 23.9778 14.7595C23.7365 16.2651 23.1881 17.7049 22.3665 18.9894C21.5449 20.2739 20.4679 21.3757 19.2023 22.2261C18.6056 19.5123 18.0368 16.9156 17.0313 14.2974C17.744 14.1936 18.4632 14.1414 19.1834 14.1414L19.1841 14.142ZM24.0357 14.3435C24.0279 14.4072 24.0208 14.4696 24.0117 14.532C24.0208 14.469 24.0285 14.4066 24.0357 14.3435ZM14.9747 14.805C15.9991 17.4525 16.8031 20.384 17.3426 23.2368C15.9693 23.8196 14.4925 24.1189 13.0006 24.1169C10.5292 24.1205 8.12777 23.2967 6.1789 21.7769C8.19195 18.5113 11.31 16.04 14.974 14.8057L14.9747 14.805Z" fill="white"/>
</svg>
