<svg width="25" height="26" viewBox="0 0 25 26" fill="none" xmlns="http://www.w3.org/2000/svg">
<path d="M22.2222 0.5C22.9589 0.5 23.6655 0.792658 24.1864 1.31359C24.7073 1.83453 25 2.54107 25 3.27778V22.7222C25 23.4589 24.7073 24.1655 24.1864 24.6864C23.6655 25.2073 22.9589 25.5 22.2222 25.5H2.77778C2.04107 25.5 1.33453 25.2073 0.813592 24.6864C0.292658 24.1655 0 23.4589 0 22.7222V3.27778C0 2.54107 0.292658 1.83453 0.813592 1.31359C1.33453 0.792658 2.04107 0.5 2.77778 0.5H22.2222ZM21.5278 22.0278V14.6667C21.5278 13.4658 21.0507 12.3142 20.2016 11.465C19.3525 10.6159 18.2008 10.1389 17 10.1389C15.8194 10.1389 14.4444 10.8611 13.7778 11.9444V10.4028H9.90278V22.0278H13.7778V15.1806C13.7778 14.1111 14.6389 13.2361 15.7083 13.2361C16.224 13.2361 16.7186 13.441 17.0833 13.8056C17.4479 14.1703 17.6528 14.6649 17.6528 15.1806V22.0278H21.5278ZM5.38889 8.22222C6.00773 8.22222 6.60122 7.97639 7.0388 7.5388C7.47639 7.10122 7.72222 6.50773 7.72222 5.88889C7.72222 4.59722 6.68056 3.54167 5.38889 3.54167C4.76637 3.54167 4.16934 3.78896 3.72915 4.22915C3.28896 4.66934 3.04167 5.26637 3.04167 5.88889C3.04167 7.18056 4.09722 8.22222 5.38889 8.22222V8.22222ZM7.31944 22.0278V10.4028H3.47222V22.0278H7.31944V22.0278Z" fill="white"/>
</svg>
