<svg width="24" height="24" viewBox="0 0 24 24" fill="none" xmlns="http://www.w3.org/2000/svg">
<path d="M0 1.71429C0 1.25963 0.158036 0.823594 0.43934 0.502103C0.720645 0.180612 1.10218 0 1.5 0H22.5C22.8978 0 23.2794 0.180612 23.5607 0.502103C23.842 0.823594 24 1.25963 24 1.71429C24 2.16894 23.842 2.60498 23.5607 2.92647C23.2794 3.24796 22.8978 3.42857 22.5 3.42857H1.5C1.10218 3.42857 0.720645 3.24796 0.43934 2.92647C0.158036 2.60498 0 2.16894 0 1.71429Z" fill="white"/>
<path d="M0 22.2856C0 21.8309 0.158036 21.3949 0.43934 21.0734C0.720645 20.7519 1.10218 20.5713 1.5 20.5713H22.5C22.8978 20.5713 23.2794 20.7519 23.5607 21.0734C23.842 21.3949 24 21.8309 24 22.2856C24 22.7402 23.842 23.1763 23.5607 23.4978C23.2794 23.8193 22.8978 23.9999 22.5 23.9999H1.5C1.10218 23.9999 0.720645 23.8193 0.43934 23.4978C0.158036 23.1763 0 22.7402 0 22.2856Z" fill="white"/>
<path d="M1.5 10.2857C1.10218 10.2857 0.720645 10.4663 0.43934 10.7878C0.158036 11.1093 0 11.5453 0 12C0 12.4547 0.158036 12.8907 0.43934 13.2122C0.720645 13.5337 1.10218 13.7143 1.5 13.7143L22.5001 13.7142C22.8979 13.7142 23.2794 13.5336 23.5607 13.2121C23.842 12.8906 24.0001 12.4546 24.0001 11.9999C24.0001 11.5453 23.842 11.1092 23.5607 10.7877C23.2794 10.4663 22.8979 10.2856 22.5001 10.2856L1.5 10.2857Z" fill="white"/>
</svg>
