<svg width="913" height="913" viewBox="0 0 913 913" fill="none" xmlns="http://www.w3.org/2000/svg">
<path d="M760.833 304.333L456.5 494.542L152.167 304.333V228.25L456.5 418.458L760.833 228.25V304.333ZM760.833 152.167H152.167C109.941 152.167 76.0835 186.024 76.0835 228.25V684.75C76.0835 704.928 84.0994 724.28 98.3678 738.549C112.636 752.817 131.988 760.833 152.167 760.833H760.833C781.012 760.833 800.364 752.817 814.632 738.549C828.901 724.28 836.917 704.928 836.917 684.75V228.25C836.917 208.071 828.901 188.719 814.632 174.451C800.364 160.183 781.012 152.167 760.833 152.167Z" fill="#828282"/>
</svg>
