<svg width="1047" height="1000" viewBox="0 0 1047 1000" fill="none" xmlns="http://www.w3.org/2000/svg">
<g clip-path="url(#clip0)">
<path d="M237.485 1000V325.301H13.229V1000H237.485ZM125.386 233.127C203.588 233.127 252.265 181.318 252.265 116.574C250.808 50.37 203.591 -0.000976562 126.87 -0.000976562C50.161 -0.000976562 -0.00195312 50.371 -0.00195312 116.574C-0.00195312 181.321 48.663 233.127 123.922 233.127H125.379H125.386ZM361.61 1000H585.866V623.215C585.866 603.05 587.323 582.906 593.245 568.491C609.457 528.202 646.356 486.474 708.305 486.474C789.454 486.474 821.918 548.346 821.918 639.046V999.995H1046.16V613.129C1046.16 405.888 935.524 309.461 787.977 309.461C667 309.461 613.883 377.083 584.374 423.14H585.871V325.287H361.615C364.558 388.597 361.615 999.986 361.615 999.986L361.61 1000Z" fill="#828282"/>
</g>
<defs>
<clipPath id="clip0">
<rect width="1046.16" height="1000" fill="white"/>
</clipPath>
</defs>
</svg>
