<svg width="1152" height="700" viewBox="0 0 1152 700" fill="none" xmlns="http://www.w3.org/2000/svg">
<path d="M0 58H1152V685C1152 693.284 1145.28 700 1137 700H15C6.71571 700 0 693.284 0 685V58Z" fill="black"/>
<path d="M0 15C0 6.71573 6.71573 0 15 0H1137C1145.28 0 1152 6.71573 1152 15V58H0V15Z" fill="#DEDEDE"/>
<circle cx="41" cy="29" r="11" fill="#EC5656"/>
<circle cx="82" cy="29" r="11" fill="#F1CB48"/>
<circle cx="124" cy="29" r="11" fill="#22B060"/>
<path d="M52.89 589.76L45.75 611H37.14L30 589.76H37.08L41.46 604.37L45.81 589.76H52.89ZM57.7409 592.73C56.5809 592.73 55.6509 592.42 54.9509 591.8C54.2509 591.18 53.9009 590.4 53.9009 589.46C53.9009 588.5 54.2509 587.71 54.9509 587.09C55.6509 586.45 56.5809 586.13 57.7409 586.13C58.8809 586.13 59.8009 586.45 60.5009 587.09C61.2009 587.71 61.5509 588.5 61.5509 589.46C61.5509 590.4 61.2009 591.18 60.5009 591.8C59.8009 592.42 58.8809 592.73 57.7409 592.73ZM61.0409 594.08V611H54.3809V594.08H61.0409ZM71.5788 611.21C69.9788 611.21 68.5588 610.95 67.3188 610.43C66.0988 609.91 65.1288 609.19 64.4088 608.27C63.6888 607.35 63.2788 606.31 63.1788 605.15H69.5688C69.6488 605.65 69.8588 606.02 70.1988 606.26C70.5588 606.5 71.0088 606.62 71.5488 606.62C71.8888 606.62 72.1588 606.55 72.3588 606.41C72.5588 606.25 72.6588 606.06 72.6588 605.84C72.6588 605.46 72.4488 605.19 72.0288 605.03C71.6088 604.87 70.8988 604.69 69.8988 604.49C68.6788 604.25 67.6688 603.99 66.8688 603.71C66.0888 603.43 65.3988 602.95 64.7988 602.27C64.2188 601.59 63.9288 600.65 63.9288 599.45C63.9288 598.41 64.1988 597.47 64.7388 596.63C65.2988 595.77 66.1188 595.1 67.1988 594.62C68.2788 594.12 69.5888 593.87 71.1288 593.87C73.4088 593.87 75.1888 594.43 76.4688 595.55C77.7688 596.67 78.5488 598.13 78.8088 599.93H72.8988C72.7988 599.47 72.5888 599.12 72.2688 598.88C71.9488 598.62 71.5188 598.49 70.9788 598.49C70.6388 598.49 70.3788 598.56 70.1988 598.7C70.0188 598.82 69.9288 599.01 69.9288 599.27C69.9288 599.61 70.1388 599.87 70.5588 600.05C70.9788 600.21 71.6488 600.38 72.5688 600.56C73.7888 600.8 74.8188 601.07 75.6588 601.37C76.4988 601.67 77.2288 602.19 77.8488 602.93C78.4688 603.65 78.7788 604.65 78.7788 605.93C78.7788 606.93 78.4888 607.83 77.9088 608.63C77.3288 609.43 76.4888 610.06 75.3888 610.52C74.3088 610.98 73.0388 611.21 71.5788 611.21ZM99.3319 594.08V611H92.6719V608.42C92.1519 609.22 91.4519 609.87 90.5719 610.37C89.7119 610.87 88.6819 611.12 87.4819 611.12C85.5419 611.12 84.0219 610.47 82.9219 609.17C81.8419 607.87 81.3019 606.11 81.3019 603.89V594.08H87.9319V603.05C87.9319 603.85 88.1419 604.49 88.5619 604.97C89.0019 605.43 89.5819 605.66 90.3019 605.66C91.0419 605.66 91.6219 605.43 92.0419 604.97C92.4619 604.49 92.6719 603.85 92.6719 603.05V594.08H99.3319ZM101.44 602.54C101.44 600.76 101.74 599.22 102.34 597.92C102.96 596.6 103.8 595.6 104.86 594.92C105.92 594.22 107.11 593.87 108.43 593.87C109.53 593.87 110.48 594.1 111.28 594.56C112.08 595 112.69 595.61 113.11 596.39V594.08H119.74V611H113.11V608.69C112.69 609.47 112.08 610.09 111.28 610.55C110.48 610.99 109.53 611.21 108.43 611.21C107.11 611.21 105.92 610.87 104.86 610.19C103.8 609.49 102.96 608.49 102.34 607.19C101.74 605.87 101.44 604.32 101.44 602.54ZM113.11 602.54C113.11 601.64 112.88 600.94 112.42 600.44C111.96 599.94 111.37 599.69 110.65 599.69C109.93 599.69 109.34 599.94 108.88 600.44C108.42 600.94 108.19 601.64 108.19 602.54C108.19 603.44 108.42 604.14 108.88 604.64C109.34 605.14 109.93 605.39 110.65 605.39C111.37 605.39 111.96 605.14 112.42 604.64C112.88 604.14 113.11 603.44 113.11 602.54ZM129.39 588.8V611H122.73V588.8H129.39ZM136.896 600.35C136.896 598.25 137.316 596.38 138.156 594.74C139.016 593.1 140.236 591.83 141.816 590.93C143.396 590.01 145.256 589.55 147.396 589.55C149.236 589.55 150.876 589.9 152.316 590.6C153.776 591.28 154.956 592.25 155.856 593.51C156.776 594.77 157.386 596.24 157.686 597.92H150.666C150.346 597.22 149.886 596.68 149.286 596.3C148.706 595.9 148.036 595.7 147.276 595.7C146.156 595.7 145.266 596.12 144.606 596.96C143.966 597.8 143.646 598.93 143.646 600.35C143.646 601.77 143.966 602.9 144.606 603.74C145.266 604.58 146.156 605 147.276 605C148.036 605 148.706 604.81 149.286 604.43C149.886 604.03 150.346 603.48 150.666 602.78H157.686C157.386 604.46 156.776 605.93 155.856 607.19C154.956 608.45 153.776 609.43 152.316 610.13C150.876 610.81 149.236 611.15 147.396 611.15C145.256 611.15 143.396 610.7 141.816 609.8C140.236 608.88 139.016 607.6 138.156 605.96C137.316 604.32 136.896 602.45 136.896 600.35ZM168.124 611.21C166.424 611.21 164.894 610.86 163.534 610.16C162.174 609.46 161.104 608.46 160.324 607.16C159.564 605.84 159.184 604.3 159.184 602.54C159.184 600.78 159.564 599.25 160.324 597.95C161.104 596.63 162.174 595.62 163.534 594.92C164.894 594.22 166.424 593.87 168.124 593.87C169.824 593.87 171.354 594.22 172.714 594.92C174.074 595.62 175.134 596.63 175.894 597.95C176.674 599.25 177.064 600.78 177.064 602.54C177.064 604.3 176.674 605.84 175.894 607.16C175.134 608.46 174.074 609.46 172.714 610.16C171.354 610.86 169.824 611.21 168.124 611.21ZM168.124 605.45C168.744 605.45 169.264 605.21 169.684 604.73C170.104 604.23 170.314 603.5 170.314 602.54C170.314 601.58 170.104 600.86 169.684 600.38C169.264 599.88 168.744 599.63 168.124 599.63C167.504 599.63 166.984 599.88 166.564 600.38C166.144 600.86 165.934 601.58 165.934 602.54C165.934 603.5 166.134 604.23 166.534 604.73C166.954 605.21 167.484 605.45 168.124 605.45ZM185.246 593.87C186.346 593.87 187.296 594.1 188.096 594.56C188.896 595 189.506 595.61 189.926 596.39V594.08H196.556V610.7C196.556 612.28 196.266 613.72 195.686 615.02C195.106 616.32 194.166 617.36 192.866 618.14C191.586 618.92 189.936 619.31 187.916 619.31C185.196 619.31 183.036 618.67 181.436 617.39C179.856 616.13 178.956 614.41 178.736 612.23H185.276C185.456 613.11 186.176 613.55 187.436 613.55C188.216 613.55 188.826 613.35 189.266 612.95C189.706 612.55 189.926 611.8 189.926 610.7V608.69C189.506 609.47 188.896 610.09 188.096 610.55C187.296 610.99 186.346 611.21 185.246 611.21C183.926 611.21 182.736 610.87 181.676 610.19C180.616 609.49 179.776 608.49 179.156 607.19C178.556 605.87 178.256 604.32 178.256 602.54C178.256 600.76 178.556 599.22 179.156 597.92C179.776 596.6 180.616 595.6 181.676 594.92C182.736 594.22 183.926 593.87 185.246 593.87ZM189.926 602.54C189.926 601.64 189.696 600.94 189.236 600.44C188.776 599.94 188.186 599.69 187.466 599.69C186.746 599.69 186.156 599.94 185.696 600.44C185.236 600.94 185.006 601.64 185.006 602.54C185.006 603.44 185.236 604.14 185.696 604.64C186.156 605.14 186.746 605.39 187.466 605.39C188.186 605.39 188.776 605.14 189.236 604.64C189.696 604.14 189.926 603.44 189.926 602.54ZM211.397 593.96C213.337 593.96 214.847 594.61 215.927 595.91C217.027 597.21 217.577 598.97 217.577 601.19V611H210.947V602.03C210.947 601.23 210.727 600.6 210.287 600.14C209.867 599.66 209.297 599.42 208.577 599.42C207.837 599.42 207.257 599.66 206.837 600.14C206.417 600.6 206.207 601.23 206.207 602.03V611H199.547V594.08H206.207V596.66C206.727 595.86 207.417 595.21 208.277 594.71C209.157 594.21 210.197 593.96 211.397 593.96ZM223.825 592.73C222.665 592.73 221.735 592.42 221.035 591.8C220.335 591.18 219.985 590.4 219.985 589.46C219.985 588.5 220.335 587.71 221.035 587.09C221.735 586.45 222.665 586.13 223.825 586.13C224.965 586.13 225.885 586.45 226.585 587.09C227.285 587.71 227.635 588.5 227.635 589.46C227.635 590.4 227.285 591.18 226.585 591.8C225.885 592.42 224.965 592.73 223.825 592.73ZM227.125 594.08V611H220.465V594.08H227.125ZM240.663 605.33V611H238.143C233.503 611 231.183 608.69 231.183 604.07V599.63H229.083V594.08H231.183V590H237.843V594.08H240.603V599.63H237.843V604.19C237.843 604.59 237.933 604.88 238.113 605.06C238.313 605.24 238.633 605.33 239.073 605.33H240.663ZM246.559 592.73C245.399 592.73 244.469 592.42 243.769 591.8C243.069 591.18 242.719 590.4 242.719 589.46C242.719 588.5 243.069 587.71 243.769 587.09C244.469 586.45 245.399 586.13 246.559 586.13C247.699 586.13 248.619 586.45 249.319 587.09C250.019 587.71 250.369 588.5 250.369 589.46C250.369 590.4 250.019 591.18 249.319 591.8C248.619 592.42 247.699 592.73 246.559 592.73ZM249.859 594.08V611H243.199V594.08H249.859ZM260.907 611.21C259.207 611.21 257.677 610.86 256.317 610.16C254.957 609.46 253.887 608.46 253.107 607.16C252.347 605.84 251.967 604.3 251.967 602.54C251.967 600.78 252.347 599.25 253.107 597.95C253.887 596.63 254.957 595.62 256.317 594.92C257.677 594.22 259.207 593.87 260.907 593.87C262.607 593.87 264.137 594.22 265.497 594.92C266.857 595.62 267.917 596.63 268.677 597.95C269.457 599.25 269.847 600.78 269.847 602.54C269.847 604.3 269.457 605.84 268.677 607.16C267.917 608.46 266.857 609.46 265.497 610.16C264.137 610.86 262.607 611.21 260.907 611.21ZM260.907 605.45C261.527 605.45 262.047 605.21 262.467 604.73C262.887 604.23 263.097 603.5 263.097 602.54C263.097 601.58 262.887 600.86 262.467 600.38C262.047 599.88 261.527 599.63 260.907 599.63C260.287 599.63 259.767 599.88 259.347 600.38C258.927 600.86 258.717 601.58 258.717 602.54C258.717 603.5 258.917 604.23 259.317 604.73C259.737 605.21 260.267 605.45 260.907 605.45ZM283.789 593.96C285.729 593.96 287.239 594.61 288.319 595.91C289.419 597.21 289.969 598.97 289.969 601.19V611H283.339V602.03C283.339 601.23 283.119 600.6 282.679 600.14C282.259 599.66 281.689 599.42 280.969 599.42C280.229 599.42 279.649 599.66 279.229 600.14C278.809 600.6 278.599 601.23 278.599 602.03V611H271.939V594.08H278.599V596.66C279.119 595.86 279.809 595.21 280.669 594.71C281.549 594.21 282.589 593.96 283.789 593.96ZM38.16 650.96H44.58V656H31.5V634.76H38.16V650.96ZM45.7758 647.54C45.7758 645.76 46.0758 644.22 46.6758 642.92C47.2958 641.6 48.1358 640.6 49.1958 639.92C50.2558 639.22 51.4458 638.87 52.7658 638.87C53.8658 638.87 54.8158 639.1 55.6158 639.56C56.4158 640 57.0258 640.61 57.4458 641.39V639.08H64.0758V656H57.4458V653.69C57.0258 654.47 56.4158 655.09 55.6158 655.55C54.8158 655.99 53.8658 656.21 52.7658 656.21C51.4458 656.21 50.2558 655.87 49.1958 655.19C48.1358 654.49 47.2958 653.49 46.6758 652.19C46.0758 650.87 45.7758 649.32 45.7758 647.54ZM57.4458 647.54C57.4458 646.64 57.2158 645.94 56.7558 645.44C56.2958 644.94 55.7058 644.69 54.9858 644.69C54.2658 644.69 53.6758 644.94 53.2158 645.44C52.7558 645.94 52.5258 646.64 52.5258 647.54C52.5258 648.44 52.7558 649.14 53.2158 649.64C53.6758 650.14 54.2658 650.39 54.9858 650.39C55.7058 650.39 56.2958 650.14 56.7558 649.64C57.2158 649.14 57.4458 648.44 57.4458 647.54ZM73.7264 641.39C74.1464 640.61 74.7464 640 75.5264 639.56C76.3264 639.1 77.2764 638.87 78.3764 638.87C79.6964 638.87 80.8864 639.22 81.9464 639.92C83.0064 640.6 83.8364 641.6 84.4364 642.92C85.0564 644.22 85.3664 645.76 85.3664 647.54C85.3664 649.32 85.0564 650.87 84.4364 652.19C83.8364 653.49 83.0064 654.49 81.9464 655.19C80.8864 655.87 79.6964 656.21 78.3764 656.21C77.2764 656.21 76.3264 655.99 75.5264 655.55C74.7464 655.09 74.1464 654.47 73.7264 653.69V656H67.0664V633.8H73.7264V641.39ZM78.6164 647.54C78.6164 646.64 78.3864 645.94 77.9264 645.44C77.4664 644.94 76.8764 644.69 76.1564 644.69C75.4364 644.69 74.8464 644.94 74.3864 645.44C73.9264 645.94 73.6964 646.64 73.6964 647.54C73.6964 648.44 73.9264 649.14 74.3864 649.64C74.8464 650.14 75.4364 650.39 76.1564 650.39C76.8764 650.39 77.4664 650.14 77.9264 649.64C78.3864 649.14 78.6164 648.44 78.6164 647.54ZM123.155 634.76L118.295 656H110.015L107.555 643.94L105.095 656H96.8147L91.9547 634.76H99.1247L101.045 648.14L103.925 634.76H111.185L114.065 648.14L115.985 634.76H123.155ZM141.923 647.39C141.923 647.85 141.893 648.29 141.833 648.71H131.123C131.223 650.17 131.833 650.9 132.953 650.9C133.673 650.9 134.193 650.57 134.513 649.91H141.563C141.323 651.11 140.813 652.19 140.033 653.15C139.273 654.09 138.303 654.84 137.123 655.4C135.963 655.94 134.683 656.21 133.283 656.21C131.603 656.21 130.103 655.86 128.783 655.16C127.483 654.46 126.463 653.46 125.723 652.16C125.003 650.84 124.643 649.3 124.643 647.54C124.643 645.78 125.003 644.25 125.723 642.95C126.463 641.63 127.483 640.62 128.783 639.92C130.103 639.22 131.603 638.87 133.283 638.87C134.963 638.87 136.453 639.22 137.753 639.92C139.073 640.6 140.093 641.58 140.813 642.86C141.553 644.14 141.923 645.65 141.923 647.39ZM135.173 645.8C135.173 645.24 134.993 644.82 134.633 644.54C134.273 644.24 133.823 644.09 133.283 644.09C132.103 644.09 131.413 644.66 131.213 645.8H135.173ZM150.689 641.39C151.109 640.61 151.709 640 152.489 639.56C153.289 639.1 154.239 638.87 155.339 638.87C156.659 638.87 157.849 639.22 158.909 639.92C159.969 640.6 160.799 641.6 161.399 642.92C162.019 644.22 162.329 645.76 162.329 647.54C162.329 649.32 162.019 650.87 161.399 652.19C160.799 653.49 159.969 654.49 158.909 655.19C157.849 655.87 156.659 656.21 155.339 656.21C154.239 656.21 153.289 655.99 152.489 655.55C151.709 655.09 151.109 654.47 150.689 653.69V656H144.029V633.8H150.689V641.39ZM155.579 647.54C155.579 646.64 155.349 645.94 154.889 645.44C154.429 644.94 153.839 644.69 153.119 644.69C152.399 644.69 151.809 644.94 151.349 645.44C150.889 645.94 150.659 646.64 150.659 647.54C150.659 648.44 150.889 649.14 151.349 649.64C151.809 650.14 152.399 650.39 153.119 650.39C153.839 650.39 154.429 650.14 154.889 649.64C155.349 649.14 155.579 648.44 155.579 647.54ZM171.95 656.21C170.35 656.21 168.93 655.95 167.69 655.43C166.47 654.91 165.5 654.19 164.78 653.27C164.06 652.35 163.65 651.31 163.55 650.15H169.94C170.02 650.65 170.23 651.02 170.57 651.26C170.93 651.5 171.38 651.62 171.92 651.62C172.26 651.62 172.53 651.55 172.73 651.41C172.93 651.25 173.03 651.06 173.03 650.84C173.03 650.46 172.82 650.19 172.4 650.03C171.98 649.87 171.27 649.69 170.27 649.49C169.05 649.25 168.04 648.99 167.24 648.71C166.46 648.43 165.77 647.95 165.17 647.27C164.59 646.59 164.3 645.65 164.3 644.45C164.3 643.41 164.57 642.47 165.11 641.63C165.67 640.77 166.49 640.1 167.57 639.62C168.65 639.12 169.96 638.87 171.5 638.87C173.78 638.87 175.56 639.43 176.84 640.55C178.14 641.67 178.92 643.13 179.18 644.93H173.27C173.17 644.47 172.96 644.12 172.64 643.88C172.32 643.62 171.89 643.49 171.35 643.49C171.01 643.49 170.75 643.56 170.57 643.7C170.39 643.82 170.3 644.01 170.3 644.27C170.3 644.61 170.51 644.87 170.93 645.05C171.35 645.21 172.02 645.38 172.94 645.56C174.16 645.8 175.19 646.07 176.03 646.37C176.87 646.67 177.6 647.19 178.22 647.93C178.84 648.65 179.15 649.65 179.15 650.93C179.15 651.93 178.86 652.83 178.28 653.63C177.7 654.43 176.86 655.06 175.76 655.52C174.68 655.98 173.41 656.21 171.95 656.21ZM185.153 637.73C183.993 637.73 183.063 637.42 182.363 636.8C181.663 636.18 181.313 635.4 181.313 634.46C181.313 633.5 181.663 632.71 182.363 632.09C183.063 631.45 183.993 631.13 185.153 631.13C186.293 631.13 187.213 631.45 187.913 632.09C188.613 632.71 188.963 633.5 188.963 634.46C188.963 635.4 188.613 636.18 187.913 636.8C187.213 637.42 186.293 637.73 185.153 637.73ZM188.453 639.08V656H181.793V639.08H188.453ZM201.991 650.33V656H199.471C194.831 656 192.511 653.69 192.511 649.07V644.63H190.411V639.08H192.511V635H199.171V639.08H201.931V644.63H199.171V649.19C199.171 649.59 199.261 649.88 199.441 650.06C199.641 650.24 199.961 650.33 200.401 650.33H201.991ZM220.907 647.39C220.907 647.85 220.877 648.29 220.817 648.71H210.107C210.207 650.17 210.817 650.9 211.937 650.9C212.657 650.9 213.177 650.57 213.497 649.91H220.547C220.307 651.11 219.797 652.19 219.017 653.15C218.257 654.09 217.287 654.84 216.107 655.4C214.947 655.94 213.667 656.21 212.267 656.21C210.587 656.21 209.087 655.86 207.767 655.16C206.467 654.46 205.447 653.46 204.707 652.16C203.987 650.84 203.627 649.3 203.627 647.54C203.627 645.78 203.987 644.25 204.707 642.95C205.447 641.63 206.467 640.62 207.767 639.92C209.087 639.22 210.587 638.87 212.267 638.87C213.947 638.87 215.437 639.22 216.737 639.92C218.057 640.6 219.077 641.58 219.797 642.86C220.537 644.14 220.907 645.65 220.907 647.39ZM214.157 645.8C214.157 645.24 213.977 644.82 213.617 644.54C213.257 644.24 212.807 644.09 212.267 644.09C211.087 644.09 210.397 644.66 210.197 645.8H214.157ZM238.791 656L234.801 648.38H234.771V656H228.111V634.76H238.011C239.731 634.76 241.201 635.07 242.421 635.69C243.641 636.29 244.551 637.12 245.151 638.18C245.771 639.22 246.081 640.4 246.081 641.72C246.081 643.14 245.681 644.4 244.881 645.5C244.101 646.6 242.971 647.39 241.491 647.87L246.111 656H238.791ZM234.771 643.94H237.411C238.051 643.94 238.531 643.8 238.851 643.52C239.171 643.22 239.331 642.76 239.331 642.14C239.331 641.58 239.161 641.14 238.821 640.82C238.501 640.5 238.031 640.34 237.411 640.34H234.771V643.94ZM264.589 647.39C264.589 647.85 264.559 648.29 264.499 648.71H253.789C253.889 650.17 254.499 650.9 255.619 650.9C256.339 650.9 256.859 650.57 257.179 649.91H264.229C263.989 651.11 263.479 652.19 262.699 653.15C261.939 654.09 260.969 654.84 259.789 655.4C258.629 655.94 257.349 656.21 255.949 656.21C254.269 656.21 252.769 655.86 251.449 655.16C250.149 654.46 249.129 653.46 248.389 652.16C247.669 650.84 247.309 649.3 247.309 647.54C247.309 645.78 247.669 644.25 248.389 642.95C249.129 641.63 250.149 640.62 251.449 639.92C252.769 639.22 254.269 638.87 255.949 638.87C257.629 638.87 259.119 639.22 260.419 639.92C261.739 640.6 262.759 641.58 263.479 642.86C264.219 644.14 264.589 645.65 264.589 647.39ZM257.839 645.8C257.839 645.24 257.659 644.82 257.299 644.54C256.939 644.24 256.489 644.09 255.949 644.09C254.769 644.09 254.079 644.66 253.879 645.8H257.839ZM265.795 647.54C265.795 645.76 266.095 644.22 266.695 642.92C267.315 641.6 268.155 640.6 269.215 639.92C270.275 639.22 271.465 638.87 272.785 638.87C273.885 638.87 274.825 639.1 275.605 639.56C276.405 640 277.015 640.61 277.435 641.39V633.8H284.095V656H277.435V653.69C277.015 654.47 276.405 655.09 275.605 655.55C274.825 655.99 273.885 656.21 272.785 656.21C271.465 656.21 270.275 655.87 269.215 655.19C268.155 654.49 267.315 653.49 266.695 652.19C266.095 650.87 265.795 649.32 265.795 647.54ZM277.465 647.54C277.465 646.64 277.235 645.94 276.775 645.44C276.315 644.94 275.725 644.69 275.005 644.69C274.285 644.69 273.695 644.94 273.235 645.44C272.775 645.94 272.545 646.64 272.545 647.54C272.545 648.44 272.775 649.14 273.235 649.64C273.695 650.14 274.285 650.39 275.005 650.39C275.725 650.39 276.315 650.14 276.775 649.64C277.235 649.14 277.465 648.44 277.465 647.54ZM303.466 647.39C303.466 647.85 303.436 648.29 303.376 648.71H292.666C292.766 650.17 293.376 650.9 294.496 650.9C295.216 650.9 295.736 650.57 296.056 649.91H303.106C302.866 651.11 302.356 652.19 301.576 653.15C300.816 654.09 299.846 654.84 298.666 655.4C297.506 655.94 296.226 656.21 294.826 656.21C293.146 656.21 291.646 655.86 290.326 655.16C289.026 654.46 288.006 653.46 287.266 652.16C286.546 650.84 286.186 649.3 286.186 647.54C286.186 645.78 286.546 644.25 287.266 642.95C288.006 641.63 289.026 640.62 290.326 639.92C291.646 639.22 293.146 638.87 294.826 638.87C296.506 638.87 297.996 639.22 299.296 639.92C300.616 640.6 301.636 641.58 302.356 642.86C303.096 644.14 303.466 645.65 303.466 647.39ZM296.716 645.8C296.716 645.24 296.536 644.82 296.176 644.54C295.816 644.24 295.366 644.09 294.826 644.09C293.646 644.09 292.956 644.66 292.756 645.8H296.716ZM313.102 656.21C311.502 656.21 310.082 655.95 308.842 655.43C307.622 654.91 306.652 654.19 305.932 653.27C305.212 652.35 304.802 651.31 304.702 650.15H311.092C311.172 650.65 311.382 651.02 311.722 651.26C312.082 651.5 312.532 651.62 313.072 651.62C313.412 651.62 313.682 651.55 313.882 651.41C314.082 651.25 314.182 651.06 314.182 650.84C314.182 650.46 313.972 650.19 313.552 650.03C313.132 649.87 312.422 649.69 311.422 649.49C310.202 649.25 309.192 648.99 308.392 648.71C307.612 648.43 306.922 647.95 306.322 647.27C305.742 646.59 305.452 645.65 305.452 644.45C305.452 643.41 305.722 642.47 306.262 641.63C306.822 640.77 307.642 640.1 308.722 639.62C309.802 639.12 311.112 638.87 312.652 638.87C314.932 638.87 316.712 639.43 317.992 640.55C319.292 641.67 320.072 643.13 320.332 644.93H314.422C314.322 644.47 314.112 644.12 313.792 643.88C313.472 643.62 313.042 643.49 312.502 643.49C312.162 643.49 311.902 643.56 311.722 643.7C311.542 643.82 311.452 644.01 311.452 644.27C311.452 644.61 311.662 644.87 312.082 645.05C312.502 645.21 313.172 645.38 314.092 645.56C315.312 645.8 316.342 646.07 317.182 646.37C318.022 646.67 318.752 647.19 319.372 647.93C319.992 648.65 320.302 649.65 320.302 650.93C320.302 651.93 320.012 652.83 319.432 653.63C318.852 654.43 318.012 655.06 316.912 655.52C315.832 655.98 314.562 656.21 313.102 656.21ZM326.305 637.73C325.145 637.73 324.215 637.42 323.515 636.8C322.815 636.18 322.465 635.4 322.465 634.46C322.465 633.5 322.815 632.71 323.515 632.09C324.215 631.45 325.145 631.13 326.305 631.13C327.445 631.13 328.365 631.45 329.065 632.09C329.765 632.71 330.115 633.5 330.115 634.46C330.115 635.4 329.765 636.18 329.065 636.8C328.365 637.42 327.445 637.73 326.305 637.73ZM329.605 639.08V656H322.945V639.08H329.605ZM338.703 638.87C339.803 638.87 340.753 639.1 341.553 639.56C342.353 640 342.963 640.61 343.383 641.39V639.08H350.013V655.7C350.013 657.28 349.723 658.72 349.143 660.02C348.563 661.32 347.623 662.36 346.323 663.14C345.043 663.92 343.393 664.31 341.373 664.31C338.653 664.31 336.493 663.67 334.893 662.39C333.313 661.13 332.413 659.41 332.193 657.23H338.733C338.913 658.11 339.633 658.55 340.893 658.55C341.673 658.55 342.283 658.35 342.723 657.95C343.163 657.55 343.383 656.8 343.383 655.7V653.69C342.963 654.47 342.353 655.09 341.553 655.55C340.753 655.99 339.803 656.21 338.703 656.21C337.383 656.21 336.193 655.87 335.133 655.19C334.073 654.49 333.233 653.49 332.613 652.19C332.013 650.87 331.713 649.32 331.713 647.54C331.713 645.76 332.013 644.22 332.613 642.92C333.233 641.6 334.073 640.6 335.133 639.92C336.193 639.22 337.383 638.87 338.703 638.87ZM343.383 647.54C343.383 646.64 343.153 645.94 342.693 645.44C342.233 644.94 341.643 644.69 340.923 644.69C340.203 644.69 339.613 644.94 339.153 645.44C338.693 645.94 338.463 646.64 338.463 647.54C338.463 648.44 338.693 649.14 339.153 649.64C339.613 650.14 340.203 650.39 340.923 650.39C341.643 650.39 342.233 650.14 342.693 649.64C343.153 649.14 343.383 648.44 343.383 647.54ZM364.854 638.96C366.794 638.96 368.304 639.61 369.384 640.91C370.484 642.21 371.034 643.97 371.034 646.19V656H364.404V647.03C364.404 646.23 364.184 645.6 363.744 645.14C363.324 644.66 362.754 644.42 362.034 644.42C361.294 644.42 360.714 644.66 360.294 645.14C359.874 645.6 359.664 646.23 359.664 647.03V656H353.004V639.08H359.664V641.66C360.184 640.86 360.874 640.21 361.734 639.71C362.614 639.21 363.654 638.96 364.854 638.96Z" fill="white"/>
</svg>
