<svg width="1152" height="700" viewBox="0 0 1152 700" fill="none" xmlns="http://www.w3.org/2000/svg">
<path d="M0 58H1152V685C1152 693.284 1145.28 700 1137 700H15C6.71571 700 0 693.284 0 685V58Z" fill="#353535"/>
<path d="M0 15C0 6.71573 6.71573 0 15 0H1137C1145.28 0 1152 6.71573 1152 15V58H0V15Z" fill="#DEDEDE"/>
<circle cx="41" cy="29" r="11" fill="#EC5656"/>
<circle cx="82" cy="29" r="11" fill="#F1CB48"/>
<circle cx="124" cy="29" r="11" fill="#22B060"/>
<path d="M384.125 371.875V343.375H377V336.25H384.125V329.125H391.25V322H412.625V329.125H398.375V336.25H426.875V371.875H412.625V343.375H398.375V371.875H384.125ZM455.375 343.375H462.5V350.5H455.375V371.875H441.125V336.25H455.375V343.375ZM483.875 336.25V343.375H462.5V336.25H483.875ZM498.125 371.875V364.75H491V343.375H498.125V336.25H533.75V343.375H540.875V357.625H505.25V364.75H533.75V371.875H498.125ZM505.25 350.5H526.625V343.375H505.25V350.5ZM548 371.875V322H562.25V336.25H590.75V343.375H597.875V371.875H583.625V343.375H562.25V371.875H548ZM612.125 371.875V364.75H605V343.375H612.125V336.25H647.75V343.375H654.875V364.75H647.75V371.875H612.125ZM619.25 364.75H640.625V343.375H619.25V364.75ZM662 371.875V364.75H697.625V357.625H669.125V350.5H662V343.375H669.125V336.25H704.75V343.375H676.25V350.5H704.75V357.625H711.875V364.75H704.75V371.875H662ZM726.125 371.875V364.75H719V343.375H726.125V336.25H761.75V343.375H768.875V357.625H733.25V364.75H761.75V371.875H726.125ZM733.25 350.5H754.625V343.375H733.25V350.5Z" fill="#E92929"/>
</svg>
